<?xml version="1.0" standalone="no"?><!DOCTYPE svg PUBLIC "-//W3C//DTD SVG 1.1//EN" "http://www.w3.org/Graphics/SVG/1.1/DTD/svg11.dtd"><svg t="1701674672871" class="icon" viewBox="0 0 1024 1024" version="1.1" xmlns="http://www.w3.org/2000/svg" p-id="1695" xmlns:xlink="http://www.w3.org/1999/xlink" width="24" height="24"><path d="M508.49792 507.3408a227.18464 227.18464 0 0 1 283.15648-30.72V266.09664a34.94912 34.94912 0 0 0-34.94912-34.94912H651.80672v-52.4288a17.47968 17.47968 0 0 0-17.46944-17.47968h-34.95936a17.4592 17.4592 0 0 0-17.46944 17.47968v52.4288h-209.7152v-52.4288a17.47968 17.47968 0 0 0-17.47968-17.43872h-34.94912a17.47968 17.47968 0 0 0-17.47968 17.47968v52.4288H197.4272a34.94912 34.94912 0 0 0-34.94912 34.94912v489.33888a34.94912 34.94912 0 0 0 34.94912 34.94912l280.39168 0.07168a227.19488 227.19488 0 0 1 30.67904-283.15648z m-127.56992-45.056v69.28384h-75.1616v-80.2816h-77.2096V382.2592h77.19936v-79.23712H380.928v79.24736h74.63936v69.02784H380.928z m288.3584 13.568c-106.16832 0-192.23552 86.0672-192.23552 192.23552s86.016 192.24576 192.23552 192.24576 192.23552-86.016 192.23552-192.24576S775.45472 475.8528 669.2864 475.8528z m-21.504 280.99584h-81.92v-81.92h81.92z m0-98.304h-81.92v-81.92h81.92z m97.28 98.304h-81.92v-81.92h81.92z" p-id="1696"></path></svg>