<?xml version="1.0" standalone="no"?><!DOCTYPE svg PUBLIC "-//W3C//DTD SVG 1.1//EN" "http://www.w3.org/Graphics/SVG/1.1/DTD/svg11.dtd"><svg t="1701675014852" class="icon" viewBox="0 0 1024 1024" version="1.1" xmlns="http://www.w3.org/2000/svg" p-id="3170" xmlns:xlink="http://www.w3.org/1999/xlink" width="24" height="24"><path d="M801.499 248.976c42.073 0 76.378-34.084 76.378-76.118 0-41.943-34.305-75.988-76.378-75.988-42.278 0-76.352 33.968-76.352 75.988 0 42.034 34.073 76.118 76.352 76.118zM977.684 409.498c-6.783-6.834-15.482-11.599-24.415-12.272h-138.127v-108.327c-9.101-8.544-129.751-94.566-129.751-94.566l-185.081 0.091c-11.858 0-22.433 5.398-29.452 13.825l-127.796 146.62c-8 6.926-12.919 17.088-12.919 28.506 0 21.152 16.985 38.228 38.345 38.228 11.858 0 22.59-5.359 29.606-13.981l118.45-136.393 68.287 0.441-261.056 301.433-176.575-0.453c-4.013-0.194-8.13 0.194-12.299 1.088-19.12 4.143-32.946 18.771-36.972 36.506v21.489l0.065 0.324c5.178 23.005 26.020 38.706 48.933 38.253l205.185-0.388c43.405 1.591 59.872-18.576 59.872-18.576l101.31-112.327 117.596 113.829-47.73 211.527c-1.165 3.909-1.58 8-1.58 12.428 0 27.030 22.112 48.986 49.322 48.986 23.665 0 43.6-16.738 48.209-39.199l58.034-257.665c12.428-40.195-9.321-60.429-9.321-60.429l-88.961-88.65 98.475-111.46-0.517 66.085s-1.346 41.813 49.269 42.124h167.306c8.803-0.778 17.243-4.53 24.079-11.263 7.234-7.132 11.713-17.040 11.713-27.994 0-10.857-4.403-20.686-11.52-27.801z" fill="#1296db" p-id="3171"></path></svg>